<?xml version="1.0" ?><svg height="256" viewBox="0 0 256 256" width="256" xmlns="http://www.w3.org/2000/svg"><title/><g id="sql"><g><path d="M184,168a8.009,8.009,0,0,0,8-8V112a8.009,8.009,0,0,0-8-8H48a8.009,8.009,0,0,0-8,8v48a8.009,8.009,0,0,0,8,8Zm-45.771-47.684h6.359v25.932H160.4v5.307H138.229Zm-31.781,3.491q4.125-4.286,11.193-4.286,7,0,11.107,4.286t4.1,12a20.711,20.711,0,0,1-1.139,7.176,14.909,14.909,0,0,1-2.75,4.576,20.775,20.775,0,0,0,5.091,2.664l-2.342,4.49a14.542,14.542,0,0,1-2.814-1.182q-.3-.151-4.232-2.793a16.919,16.919,0,0,1-6.854,1.354q-7.262,0-11.376-4.275t-4.114-12.01Q102.323,128.094,106.448,123.808ZM91.027,140.5a5.242,5.242,0,0,0-2.288-1.364q-1.118-.387-5.092-1.375-5.114-1.267-7.176-3.115a8.2,8.2,0,0,1-2.9-6.338,8.1,8.1,0,0,1,1.364-4.5,8.538,8.538,0,0,1,3.932-3.19,15.756,15.756,0,0,1,6.2-1.1q5.93,0,8.927,2.6a9.177,9.177,0,0,1,3.147,6.939l-6.359.279a5.4,5.4,0,0,0-1.751-3.491A6.412,6.412,0,0,0,85,124.785a7.268,7.268,0,0,0-4.34,1.139,2.294,2.294,0,0,0-1.01,1.955,2.418,2.418,0,0,0,.945,1.912q1.2,1.01,5.844,2.105a30.856,30.856,0,0,1,6.864,2.267,8.848,8.848,0,0,1,3.48,3.2,9.915,9.915,0,0,1-.247,10.087,9.014,9.014,0,0,1-4.254,3.513,17.844,17.844,0,0,1-6.854,1.149q-5.973,0-9.174-2.761a12.006,12.006,0,0,1-3.824-8.046l6.188-.6a7.545,7.545,0,0,0,2.267,4.576,6.852,6.852,0,0,0,4.608,1.461,7.083,7.083,0,0,0,4.63-1.3,3.868,3.868,0,0,0,1.558-3.04A2.869,2.869,0,0,0,91.027,140.5Z"/><path d="M117.4,146.807a7.46,7.46,0,0,0,2.6-.451,18.409,18.409,0,0,0-3.932-1.977l1.783-3.631a21.619,21.619,0,0,1,5.994,3.223,9.509,9.509,0,0,0,1.837-3.48,16.318,16.318,0,0,0,.612-4.684q0-5.457-2.406-8.153a8.7,8.7,0,0,0-12.6.011q-2.417,2.707-2.417,8.143,0,5.522,2.417,8.261A7.8,7.8,0,0,0,117.4,146.807Z"/><path d="M200,8H64A16.018,16.018,0,0,0,48,24V96h8V24a8.009,8.009,0,0,1,8-8H200a8.009,8.009,0,0,1,8,8V191.029a8.1,8.1,0,0,1-.065.971H172a12.013,12.013,0,0,0-12,12v35.935a8.113,8.113,0,0,1-.971.065H64a8.009,8.009,0,0,1-8-8V176H48v56a16.018,16.018,0,0,0,16,16h95.029a15.893,15.893,0,0,0,11.313-4.686l40.972-40.971A15.9,15.9,0,0,0,216,191.029V24A16.018,16.018,0,0,0,200,8Z"/></g></g></svg>